<svg version="1.1" viewBox="0.0 0.0 534.4225721784777 263.66141732283467" fill="none" stroke="none" stroke-linecap="square" stroke-miterlimit="10" xmlns:xlink="http://www.w3.org/1999/xlink" xmlns="http://www.w3.org/2000/svg"><clipPath id="p.0"><path d="m0 0l534.42255 0l0 263.6614l-534.42255 0l0 -263.6614z" clip-rule="nonzero"/></clipPath><g clip-path="url(#p.0)"><path fill="#000000" fill-opacity="0.0" d="m0 0l534.42255 0l0 263.6614l-534.42255 0z" fill-rule="evenodd"/><path fill="#0000ff" d="m294.2791 21.469326l0 0c0 0 0 0 0 0l0 0l0 0zm-2.594635 44.529118l0 0c0 0 0 0 0 0l0 0c0 0 0 0 0 0zm-47.174957 -65.99844c-0.26818848 0 -0.53263855 0.00790182 -0.79333496 0.023702027c-1.2383423 0.056288444 -2.335968 0.08443267 -3.2928772 0.08443267c-4.221634 0 -8.705948 0.7880383 -13.452942 2.364115c-4.7282257 1.5573149 -9.447067 3.6868935 -14.15654 6.388739c-4.7094727 2.7018452 -9.212555 5.87276 -13.509232 9.512747c-4.2779236 3.639988 -8.10553 7.5895615 -11.482834 11.848719c-3.358551 4.259159 -6.0791626 8.743469 -8.161835 13.452942c-2.082672 4.709461 -3.1240082 9.512745 -3.1240082 14.40984c0 5.159775 1.2852631 9.531509 3.8557587 13.1152115c2.5892792 3.5836945 5.9102936 6.4637833 9.963058 8.640274c4.052765 2.1764832 8.508942 3.8276138 13.3685 4.9533844c4.8783417 1.1070099 9.803574 2.0357742 14.775726 2.7862778c4.990906 0.7317505 9.812958 1.294632 14.4661255 1.688652c4.6719513 0.39402008 8.7434845 0.89123535 12.2146 1.4916458c3.4898834 0.58164215 5.8915253 1.1445312 7.2049255 1.688652c0.6438751 0.26298523 1.1321411 0.39448547 1.4648132 0.39448547c0.10479736 0 0.19415283 -0.013038635 0.2680664 -0.039138794l0 0c-1.1088867 1.6046524 -3.140625 3.2968063 -6.0952454 5.0764923c-3.208435 1.9325638 -6.885956 3.7150345 -11.032532 5.3474045c-4.127823 1.6323624 -8.471405 3.1146164 -13.030777 4.446785c-4.5593567 1.332161 -8.780991 2.5705109 -12.664902 3.7150345c-3.8651428 1.1445312 -7.430069 2.3547287 -10.694809 3.6306076c-3.2459564 1.257103 -5.103485 3.0583344 -5.5725555 5.403694c-0.8067932 3.020813 -0.4033966 5.272354 1.2102051 6.754608c1.6136017 1.482254 3.452362 2.2233887 5.516266 2.2233887c3.7900848 -0.3752594 8.227493 -1.219574 13.312225 -2.5329742c5.103485 -1.332161 10.347687 -2.9457703 15.73262 -4.840805c5.4036865 -1.89505 10.6666565 -4.0246277 15.78891 -6.3887405c5.1410065 -2.3641129 9.662857 -4.775131 13.565506 -7.2330627c3.9214478 -2.4766922 7.0829773 -5.300499 9.484619 -8.471413c2.4016418 -3.1709137 2.7018433 -6.069771 0.90060425 -8.696564c0 -3.358551 -1.4259644 -6.1354446 -4.2779236 -8.330696c-2.8519287 -2.1952438 -6.2761536 -3.8463745 -10.272644 -4.953377c-3.977707 -1.1070099 -8.386978 -1.857521 -13.227783 -2.2515411c-4.840805 -0.41278076 -9.662842 -0.8349457 -14.4661255 -1.2664871c-4.8032837 -0.45030975 -9.493988 -1.0038147 -14.072113 -1.6605148c-4.559372 -0.6566925 -8.471405 -1.613594 -11.736145 -2.8707047c-3.2647247 -1.2571182 -5.7414246 -2.8144226 -7.430069 -4.6719437c-1.6886597 -1.857521 -2.5329895 -4.296688 -2.5329895 -7.317501c0 -2.2140121 0.6285553 -4.840805 1.8856659 -7.8803825c1.2758789 -3.058342 3.0020447 -6.18235 5.178543 -9.372025c2.1952515 -3.1896782 4.73761 -6.2855415 7.627075 -9.287596c2.908249 -3.020811 5.8821564 -5.675747 8.921722 -7.964815c3.0395813 -2.2890644 5.9290466 -4.0809116 8.6684265 -5.3755474c2.7393646 -1.2946339 4.746994 -1.9419518 6.0228577 -1.9419518l6.5857544 4.7282314c4.5218353 0 8.274399 -0.97566605 11.25769 -2.927c2.9832916 -1.9700956 4.47493 -5.234826 4.47493 -9.79419c0 -2.2140112 -0.56288147 -3.9870973 -1.6886597 -5.3192587c-1.1069946 -1.3509227 -2.3641052 -2.1671052 -3.7713165 -2.4485474c-1.1109619 -0.22219235 -2.1692963 -0.33328852 -3.175003 -0.33328852zm102.29895 6.5250177c-0.45028687 0 -0.9850464 0.02814436 -1.6042175 0.0844326c-0.61917114 0.05628872 -1.0788574 0.0844326 -1.3790588 0.0844326l-49.54608 14.775443l0 0c0.8450928 -0.3684101 1.1962891 -0.9593468 1.0535889 -1.7728119c-0.18762207 -1.069479 -0.5722656 -2.1858654 -1.1539307 -3.3491611c-0.5816345 -1.1632967 -1.5010071 -2.2703037 -2.7581177 -3.3210192c-1.2571106 -1.0694809 -2.335968 -1.6042213 -3.2366028 -1.6042213c-0.77719116 -0.77718544 -1.7677002 -1.1657763 -2.9715881 -1.1657763c-0.6852722 0 -1.4396973 0.12591457 -2.263214 0.377738c-2.2703247 0.6942234 -4.1747437 1.8106098 -5.7132874 3.349163c-1.5198059 1.5197878 -2.823822 3.3304014 -3.9120483 5.431836c-1.0694885 2.1014328 -1.7543335 4.3342094 -2.054535 6.698324c-0.2814331 2.3641148 0.03753662 4.7563744 0.9569092 7.176779c0.93814087 2.401638 2.1577148 4.0527687 3.6587524 4.9533806c-0.37527466 7.054825 -0.61917114 13.481087 -0.7317505 19.278797c-0.112579346 5.778942 -0.14071655 10.638512 -0.08444214 14.578705c0.05630493 3.9214249 0.2626953 7.0360565 0.61917114 9.343887c0.37527466 2.3078232 0.8067932 4.259163 1.2946472 5.8539963c0.5065918 1.5760727 1.2664795 2.6830902 2.279663 3.3210144c1.0132141 0.6191788 2.6831055 1.1632996 5.009674 1.63237c13.865723 -15.160362 23.556732 -23.584862 29.072998 -25.273514c1.2675476 -0.38671875 2.3919678 -0.5800705 3.373169 -0.5800705c3.3034363 0 4.9841003 2.191597 5.0419617 6.574791c0 3.6962738 -0.61917114 7.1298676 -1.857544 10.300781c-1.219574 3.1709137 -2.7299805 6.1917343 -4.5312195 9.062447c-1.8012085 2.8707047 -3.836975 5.6382294 -6.1072693 8.302544c-2.2703247 2.6455536 -4.4280396 5.253586 -6.473175 7.8240967c-2.045166 2.5705109 -3.8182373 5.2160645 -5.319275 7.9366684c-1.4822693 2.720604 -2.2233887 5.5725555 -2.2233887 8.555847c0 1.1820526 0.16885376 2.52359 0.5065918 4.0246277c0.35650635 1.5010223 2.4391785 2.936386 6.2480164 4.306061c5.234833 -4.6344147 9.850494 -9.212532 13.846954 -13.734383c3.9964905 -4.5218353 7.598938 -9.36264 10.807404 -14.522423c3.2272034 -5.159775 5.825836 -10.600998 7.795929 -16.323647c1.9700928 -5.722664 2.9551392 -11.651718 2.9551392 -17.787148c0 -2.15773 -0.2626648 -4.4561768 -0.7880249 -6.89534c-0.5065918 -2.457924 -1.3509216 -4.7282295 -2.5329895 -6.8109016c-1.1820374 -2.1014366 -2.8613281 -3.8932877 -5.0378113 -5.3755455c-2.1577148 -1.5010223 -4.7938843 -2.2515373 -7.9085083 -2.2515373c-4.3342285 0 -8.180603 0.7317505 -11.539154 2.1952477c-3.358551 1.4447365 -6.407501 3.2647324 -9.146851 5.45998c-2.73938 2.1952515 -5.3005066 4.6625633 -7.68338 7.4019356c-0.3970337 0.45689392 -0.7593994 0.9087601 -1.0870972 1.3555984l0 0c-0.025787354 -1.0092392 -0.03866577 -1.9583282 -0.03866577 -2.8472443l0 -3.0395775c0 -6.7358513 0.19699097 -11.895622 0.5910034 -15.479324c0.41278076 -3.5836945 1.36969 -6.323063 2.8707275 -8.218113c1.5197754 -1.9138069 3.949585 -3.5555534 7.289337 -4.9252396c3.358551 -1.369688 8.349457 -2.9457645 14.972748 -4.7282295c5.3473816 -1.557312 10.507172 -2.8425636 15.479309 -3.8557587c2.4408875 -0.49738503 5.0784607 -0.7460766 7.9127197 -0.7460766c2.939209 0 6.089966 0.26745605 9.4522705 0.80236435c1.8200073 -2.3453522 3.011444 -4.1184387 3.5743103 -5.3192577c0.5628967 -1.2195854 0.84432983 -2.6549397 0.84432983 -4.3060665c0 -2.7206078 -0.90997314 -4.5312204 -2.7299805 -5.4318357c-1.8200073 -0.91937685 -3.518036 -1.379067 -5.094116 -1.379067z" fill-rule="evenodd"/><path stroke="#000000" stroke-width="1.0" stroke-linejoin="round" stroke-linecap="butt" d="m294.2791 21.469326l0 0c0 0 0 0 0 0l0 0l0 0zm-2.594635 44.529118l0 0c0 0 0 0 0 0l0 0c0 0 0 0 0 0zm-47.174957 -65.99844c-0.26818848 0 -0.53263855 0.00790182 -0.79333496 0.023702027c-1.2383423 0.056288444 -2.335968 0.08443267 -3.2928772 0.08443267c-4.221634 0 -8.705948 0.7880383 -13.452942 2.364115c-4.7282257 1.5573149 -9.447067 3.6868935 -14.15654 6.388739c-4.7094727 2.7018452 -9.212555 5.87276 -13.509232 9.512747c-4.2779236 3.639988 -8.10553 7.5895615 -11.482834 11.848719c-3.358551 4.259159 -6.0791626 8.743469 -8.161835 13.452942c-2.082672 4.709461 -3.1240082 9.512745 -3.1240082 14.40984c0 5.159775 1.2852631 9.531509 3.8557587 13.1152115c2.5892792 3.5836945 5.9102936 6.4637833 9.963058 8.640274c4.052765 2.1764832 8.508942 3.8276138 13.3685 4.9533844c4.8783417 1.1070099 9.803574 2.0357742 14.775726 2.7862778c4.990906 0.7317505 9.812958 1.294632 14.4661255 1.688652c4.6719513 0.39402008 8.7434845 0.89123535 12.2146 1.4916458c3.4898834 0.58164215 5.8915253 1.1445312 7.2049255 1.688652c0.6438751 0.26298523 1.1321411 0.39448547 1.4648132 0.39448547c0.10479736 0 0.19415283 -0.013038635 0.2680664 -0.039138794l0 0c-1.1088867 1.6046524 -3.140625 3.2968063 -6.0952454 5.0764923c-3.208435 1.9325638 -6.885956 3.7150345 -11.032532 5.3474045c-4.127823 1.6323624 -8.471405 3.1146164 -13.030777 4.446785c-4.5593567 1.332161 -8.780991 2.5705109 -12.664902 3.7150345c-3.8651428 1.1445312 -7.430069 2.3547287 -10.694809 3.6306076c-3.2459564 1.257103 -5.103485 3.0583344 -5.5725555 5.403694c-0.8067932 3.020813 -0.4033966 5.272354 1.2102051 6.754608c1.6136017 1.482254 3.452362 2.2233887 5.516266 2.2233887c3.7900848 -0.3752594 8.227493 -1.219574 13.312225 -2.5329742c5.103485 -1.332161 10.347687 -2.9457703 15.73262 -4.840805c5.4036865 -1.89505 10.6666565 -4.0246277 15.78891 -6.3887405c5.1410065 -2.3641129 9.662857 -4.775131 13.565506 -7.2330627c3.9214478 -2.4766922 7.0829773 -5.300499 9.484619 -8.471413c2.4016418 -3.1709137 2.7018433 -6.069771 0.90060425 -8.696564c0 -3.358551 -1.4259644 -6.1354446 -4.2779236 -8.330696c-2.8519287 -2.1952438 -6.2761536 -3.8463745 -10.272644 -4.953377c-3.977707 -1.1070099 -8.386978 -1.857521 -13.227783 -2.2515411c-4.840805 -0.41278076 -9.662842 -0.8349457 -14.4661255 -1.2664871c-4.8032837 -0.45030975 -9.493988 -1.0038147 -14.072113 -1.6605148c-4.559372 -0.6566925 -8.471405 -1.613594 -11.736145 -2.8707047c-3.2647247 -1.2571182 -5.7414246 -2.8144226 -7.430069 -4.6719437c-1.6886597 -1.857521 -2.5329895 -4.296688 -2.5329895 -7.317501c0 -2.2140121 0.6285553 -4.840805 1.8856659 -7.8803825c1.2758789 -3.058342 3.0020447 -6.18235 5.178543 -9.372025c2.1952515 -3.1896782 4.73761 -6.2855415 7.627075 -9.287596c2.908249 -3.020811 5.8821564 -5.675747 8.921722 -7.964815c3.0395813 -2.2890644 5.9290466 -4.0809116 8.6684265 -5.3755474c2.7393646 -1.2946339 4.746994 -1.9419518 6.0228577 -1.9419518l6.5857544 4.7282314c4.5218353 0 8.274399 -0.97566605 11.25769 -2.927c2.9832916 -1.9700956 4.47493 -5.234826 4.47493 -9.79419c0 -2.2140112 -0.56288147 -3.9870973 -1.6886597 -5.3192587c-1.1069946 -1.3509227 -2.3641052 -2.1671052 -3.7713165 -2.4485474c-1.1109619 -0.22219235 -2.1692963 -0.33328852 -3.175003 -0.33328852zm102.29895 6.5250177c-0.45028687 0 -0.9850464 0.02814436 -1.6042175 0.0844326c-0.61917114 0.05628872 -1.0788574 0.0844326 -1.3790588 0.0844326l-49.54608 14.775443l0 0c0.8450928 -0.3684101 1.1962891 -0.9593468 1.0535889 -1.7728119c-0.18762207 -1.069479 -0.5722656 -2.1858654 -1.1539307 -3.3491611c-0.5816345 -1.1632967 -1.5010071 -2.2703037 -2.7581177 -3.3210192c-1.2571106 -1.0694809 -2.335968 -1.6042213 -3.2366028 -1.6042213c-0.77719116 -0.77718544 -1.7677002 -1.1657763 -2.9715881 -1.1657763c-0.6852722 0 -1.4396973 0.12591457 -2.263214 0.377738c-2.2703247 0.6942234 -4.1747437 1.8106098 -5.7132874 3.349163c-1.5198059 1.5197878 -2.823822 3.3304014 -3.9120483 5.431836c-1.0694885 2.1014328 -1.7543335 4.3342094 -2.054535 6.698324c-0.2814331 2.3641148 0.03753662 4.7563744 0.9569092 7.176779c0.93814087 2.401638 2.1577148 4.0527687 3.6587524 4.9533806c-0.37527466 7.054825 -0.61917114 13.481087 -0.7317505 19.278797c-0.112579346 5.778942 -0.14071655 10.638512 -0.08444214 14.578705c0.05630493 3.9214249 0.2626953 7.0360565 0.61917114 9.343887c0.37527466 2.3078232 0.8067932 4.259163 1.2946472 5.8539963c0.5065918 1.5760727 1.2664795 2.6830902 2.279663 3.3210144c1.0132141 0.6191788 2.6831055 1.1632996 5.009674 1.63237c13.865723 -15.160362 23.556732 -23.584862 29.072998 -25.273514c1.2675476 -0.38671875 2.3919678 -0.5800705 3.373169 -0.5800705c3.3034363 0 4.9841003 2.191597 5.0419617 6.574791c0 3.6962738 -0.61917114 7.1298676 -1.857544 10.300781c-1.219574 3.1709137 -2.7299805 6.1917343 -4.5312195 9.062447c-1.8012085 2.8707047 -3.836975 5.6382294 -6.1072693 8.302544c-2.2703247 2.6455536 -4.4280396 5.253586 -6.473175 7.8240967c-2.045166 2.5705109 -3.8182373 5.2160645 -5.319275 7.9366684c-1.4822693 2.720604 -2.2233887 5.5725555 -2.2233887 8.555847c0 1.1820526 0.16885376 2.52359 0.5065918 4.0246277c0.35650635 1.5010223 2.4391785 2.936386 6.2480164 4.306061c5.234833 -4.6344147 9.850494 -9.212532 13.846954 -13.734383c3.9964905 -4.5218353 7.598938 -9.36264 10.807404 -14.522423c3.2272034 -5.159775 5.825836 -10.600998 7.795929 -16.323647c1.9700928 -5.722664 2.9551392 -11.651718 2.9551392 -17.787148c0 -2.15773 -0.2626648 -4.4561768 -0.7880249 -6.89534c-0.5065918 -2.457924 -1.3509216 -4.7282295 -2.5329895 -6.8109016c-1.1820374 -2.1014366 -2.8613281 -3.8932877 -5.0378113 -5.3755455c-2.1577148 -1.5010223 -4.7938843 -2.2515373 -7.9085083 -2.2515373c-4.3342285 0 -8.180603 0.7317505 -11.539154 2.1952477c-3.358551 1.4447365 -6.407501 3.2647324 -9.146851 5.45998c-2.73938 2.1952515 -5.3005066 4.6625633 -7.68338 7.4019356c-0.3970337 0.45689392 -0.7593994 0.9087601 -1.0870972 1.3555984l0 0c-0.025787354 -1.0092392 -0.03866577 -1.9583282 -0.03866577 -2.8472443l0 -3.0395775c0 -6.7358513 0.19699097 -11.895622 0.5910034 -15.479324c0.41278076 -3.5836945 1.36969 -6.323063 2.8707275 -8.218113c1.5197754 -1.9138069 3.949585 -3.5555534 7.289337 -4.9252396c3.358551 -1.369688 8.349457 -2.9457645 14.972748 -4.7282295c5.3473816 -1.557312 10.507172 -2.8425636 15.479309 -3.8557587c2.4408875 -0.49738503 5.0784607 -0.7460766 7.9127197 -0.7460766c2.939209 0 6.089966 0.26745605 9.4522705 0.80236435c1.8200073 -2.3453522 3.011444 -4.1184387 3.5743103 -5.3192577c0.5628967 -1.2195854 0.84432983 -2.6549397 0.84432983 -4.3060665c0 -2.7206078 -0.90997314 -4.5312204 -2.7299805 -5.4318357c-1.8200073 -0.91937685 -3.518036 -1.379067 -5.094116 -1.379067z" fill-rule="evenodd"/><path fill="#0000ff" d="m7.6052246 139.42268c-2.1163702 0 -3.9132242 1.4245605 -5.390542 4.273697c-1.4773383 2.8491364 -2.2159972 6.3144684 -2.2159972 10.396011l0 19.659012c0 3.9887848 0.738659 7.4276123 2.2159972 10.316498c1.4773381 2.8888855 3.274192 4.3333435 5.390542 4.3333435l30.395237 0c0.67339325 0 1.2505836 0.45056152 1.7315674 1.3516693c0.48787308 0.8878784 0.73179626 1.9877777 0.73179626 3.2996979l0 19.659012c0 1.2986755 -0.24392319 2.418457 -0.73179626 3.359314c-0.48098373 0.92762756 -1.0581741 1.391449 -1.7315674 1.391449l-30.395237 0c-0.6802597 0 -1.2643142 -0.4638214 -1.7521839 -1.391449c-0.48098516 -0.9408722 -0.7214875 -2.0606537 -0.7214875 -3.359314l0 -3.4189606l-5.1328683 0l0 3.4189606c0 4.068283 0.738659 7.526993 2.2159972 10.376129c1.4773381 2.8491364 3.274192 4.273697 5.390542 4.273697l30.395237 0c2.1094856 0 3.902897 -1.4245605 5.380234 -4.273697c1.4773407 -2.8491364 2.2159996 -6.307846 2.2159996 -10.376129l0 -19.659012c0 -4.0020294 -0.7386589 -7.4474945 -2.2159996 -10.33638c-1.4773369 -2.8888855 -3.2707481 -4.3333282 -5.380234 -4.3333282l-30.395237 0c-0.6802597 0 -1.2643142 -0.4439392 -1.7521839 -1.3318024c-0.48098516 -0.90112305 -0.7214875 -2.0010223 -0.7214875 -3.2996979l0 -19.659012c0 -1.3119202 0.24050236 -2.4317017 0.7214875 -3.359314c0.48786974 -0.94088745 1.0719242 -1.4113159 1.7521839 -1.4113159l30.395237 0c0.67339325 0 1.2505836 0.47042847 1.7315674 1.4113159c0.48787308 0.9276123 0.73179626 2.0473938 0.73179626 3.359314l0 3.4189606l5.1328697 0l0 -3.4189606c0 -4.081543 -0.7386589 -7.5468903 -2.2159996 -10.396011c-1.4773369 -2.8491364 -3.2707481 -4.273697 -5.380234 -4.273697z" fill-rule="evenodd"/><path fill="#0000ff" d="m82.004654 166.53581c0.6802597 0 1.2608948 0.47044373 1.7418747 1.4113159c0.48786926 0.9408722 0.73179626 2.0606384 0.73179626 3.3593292l0 41.28589c0 1.2986908 -0.243927 2.418457 -0.73179626 3.3593292c-0.48097992 0.92762756 -1.061615 1.3914337 -1.7418747 1.3914337l-22.03629 0c-0.67339325 0 -1.2643318 -0.46380615 -1.7727966 -1.3914337c-0.50159836 -0.9408722 -0.7524071 -2.0606537 -0.7524071 -3.3593292l0 -41.28589c0 -1.2986755 0.25080872 -2.418457 0.7524071 -3.3593292c0.5084839 -0.9408722 1.0994225 -1.4113159 1.7727966 -1.4113159zm-29.756203 -10.018341l0 98.93112l5.19471 0l0 -28.087143l24.561493 0c2.1163712 0 3.9235306 -1.4444427 5.421463 -4.3333282c1.4979553 -2.8888855 2.2469177 -6.3674774 2.2469177 -10.435776l0 -41.28589c0 -4.0682983 -0.7489624 -7.5468903 -2.2469177 -10.435776c-1.4979553 -2.9021454 -3.3051147 -4.3532104 -5.421463 -4.3532104z" fill-rule="evenodd"/><path fill="#0000ff" d="m123.80573 166.53581c0.6733856 0 1.2505798 0.47044373 1.731575 1.4113159c0.487854 0.9408722 0.73178864 2.0606384 0.73178864 3.3593292l0 41.28589c0 1.2986908 -0.24393463 2.418457 -0.73178864 3.3593292c-0.48099518 0.92762756 -1.0581894 1.3914337 -1.731575 1.3914337l-22.036285 0c-0.6802597 0 -1.264328 -0.46380615 -1.7521896 -1.3914337c-0.48098755 -0.9408722 -0.7214813 -2.0606537 -0.7214813 -3.3593292l0 -41.28589c0 -1.2986755 0.24049377 -2.418457 0.7214813 -3.3593292c0.48786163 -0.9408722 1.0719299 -1.4113159 1.7521896 -1.4113159zm-22.036285 -10.018341c-2.109497 0 -3.9166489 1.4510651 -5.421463 4.3532104c-1.4979553 2.8888855 -2.2469177 6.3674774 -2.2469177 10.435776l0 41.28589c0 4.0682983 0.7489624 7.5468903 2.2469177 10.435776c1.5048141 2.8888855 3.311966 4.3333282 5.421463 4.3333282l22.036285 0c2.1507263 0 3.9750595 -1.4444427 5.4729996 -4.3333282c1.4979401 -2.8888855 2.2469177 -6.3674774 2.2469177 -10.435776l0 -41.28589c0 -4.0682983 -0.74897766 -7.5468903 -2.2469177 -10.435776c-1.4979401 -2.9021454 -3.3222733 -4.3532104 -5.4729996 -4.3532104z" fill-rule="evenodd"/><path fill="#0000ff" d="m145.01958 156.51747c-2.109497 0 -3.9166412 1.4510651 -5.421463 4.3532104c-1.4979401 2.8888855 -2.2469177 6.3674774 -2.2469177 10.435776l0 56.054993l5.1947174 0l0 -56.054993c0 -1.2986755 0.243927 -2.418457 0.73179626 -3.3593292c0.487854 -0.9408722 1.0684814 -1.4113159 1.7418671 -1.4113159l20.644852 0l0 -10.018341z" fill-rule="evenodd"/><path fill="#0000ff" d="m169.84624 133.32024l0 79.27211c0 4.0682983 0.7386627 7.5468903 2.2160034 10.435776c1.4773254 2.8888855 3.2913513 4.3333282 5.4420776 4.3333282l13.429962 0l0 -10.018341l-13.429962 0c-0.6733856 0 -1.2540131 -0.46380615 -1.7418823 -1.3914337c-0.487854 -0.9408722 -0.73179626 -2.0606537 -0.73179626 -3.3593292l0 -46.056534l15.903641 0l0 -10.018341l-15.903641 0l0 -23.197235z" fill-rule="evenodd"/><path fill="#0000ff" d="m196.05437 133.32024l0 10.018341l5.1947174 0l0 -10.018341zm0 23.197235l0 70.84398l5.1947174 0l0 -70.84398z" fill-rule="evenodd"/><path fill="#0000ff" d="m208.41026 156.51747l0 70.84398l5.1947174 0l0 -56.054993c0 -1.2986755 0.25079346 -2.418457 0.7524109 -3.3593292c0.5084686 -0.9408722 1.099411 -1.4113159 1.7727966 -1.4113159l22.036285 0c0.6802521 0 1.2608795 0.47044373 1.7418671 1.4113159c0.48786926 0.9408722 0.73179626 2.0606384 0.73179626 3.3593292l0 56.054993l5.1947174 0l0 -56.054993c0 -4.0682983 -0.74897766 -7.5468903 -2.2469177 -10.435776c-1.4979401 -2.9021454 -3.3050995 -4.3532104 -5.421463 -4.3532104z" fill-rule="evenodd"/><path fill="#0000ff" d="m281.35492 166.53581c0.68026733 0 1.2608948 0.47044373 1.7418823 1.4113159c0.487854 0.9408722 0.731781 2.0606384 0.731781 3.3593292l0 41.28589c0 1.2986908 -0.243927 2.418457 -0.731781 3.3593292c-0.48098755 0.92762756 -1.061615 1.3914337 -1.7418823 1.3914337l-22.036285 0c-0.6734009 0 -1.2539978 -0.46380615 -1.7418823 -1.3914337c-0.48098755 -0.9408722 -0.72146606 -2.0606537 -0.72146606 -3.3593292l0 -41.28589c0 -1.2986755 0.24047852 -2.418457 0.72146606 -3.3593292c0.48788452 -0.9408722 1.0684814 -1.4113159 1.7418823 -1.4113159zm-22.036285 -10.018341c-2.109497 0 -3.913208 1.4510651 -5.411148 4.3532104c-1.4979553 2.8888855 -2.2469177 6.3674774 -2.2469177 10.435776l0 41.28589c0 4.0682983 0.7489624 7.5468903 2.2469177 10.435776c1.4979401 2.8888855 3.301651 4.3333282 5.411148 4.3333282l24.509949 0l0 13.059631c0 1.3119202 -0.243927 2.4317017 -0.731781 3.359314c-0.48098755 0.94088745 -1.061615 1.4113159 -1.7418823 1.4113159l-22.922668 0l0 10.137619l22.922668 0c2.1575928 0 3.9750671 -1.4444427 5.4523926 -4.3333435c1.4773254 -2.8888855 2.2160034 -6.413864 2.2160034 -10.574905l0 -69.114624c0 -4.0682983 -0.738678 -7.5468903 -2.2160034 -10.435776c-1.4773254 -2.9021454 -3.2947998 -4.3532104 -5.4523926 -4.3532104z" fill-rule="evenodd"/><path fill="#0000ff" d="m320.6813 139.42268c-2.109497 0 -3.902893 1.4245605 -5.380249 4.273697c-1.4773254 2.8491364 -2.215973 6.3144684 -2.215973 10.396011l0 58.619232c0 4.068283 0.73864746 7.526993 2.215973 10.376129c1.477356 2.8491364 3.270752 4.273697 5.380249 4.273697l30.395233 0c2.1163635 0 3.913208 -1.4245605 5.3905334 -4.273697c1.477356 -2.8491364 2.2160034 -6.307846 2.2160034 -10.376129l0 -31.764511l-16.408691 0l0 10.018341l11.275818 0l0 21.74617c0 1.2986755 -0.243927 2.418457 -0.731781 3.359314c-0.48098755 0.92762756 -1.061615 1.391449 -1.7418823 1.391449l-30.395233 0c-0.6734009 0 -1.2540283 -0.4638214 -1.7418823 -1.391449c-0.48098755 -0.9408722 -0.72146606 -2.0606537 -0.72146606 -3.359314l0 -58.619232c0 -1.3119202 0.24047852 -2.4317017 0.72146606 -3.359314c0.48788452 -0.94088745 1.068512 -1.4113159 1.7418823 -1.4113159l30.395233 0c0.68026733 0 1.2608948 0.47042847 1.7418823 1.4113159c0.487854 0.9276123 0.731781 2.0473938 0.731781 3.359314l0 3.5382233l5.1328735 0l0 -3.5382233c0 -4.081543 -0.73864746 -7.5468903 -2.2160034 -10.396011c-1.4773254 -2.8491364 -3.27417 -4.273697 -5.3905334 -4.273697z" fill-rule="evenodd"/><path fill="#0000ff" d="m395.0308 166.53581c0.67337036 0 1.2505798 0.47044373 1.7315674 1.4113159c0.487854 0.9408722 0.731781 2.0606384 0.731781 3.3593292l0 41.28589c0 1.2986908 -0.243927 2.418457 -0.731781 3.3593292c-0.48098755 0.92762756 -1.058197 1.3914337 -1.7315674 1.3914337l-22.036285 0c-0.68026733 0 -1.2643433 -0.46380615 -1.7521973 -1.3914337c-0.48098755 -0.9408722 -0.72146606 -2.0606537 -0.72146606 -3.3593292l0 -41.28589c0 -1.2986755 0.24047852 -2.418457 0.72146606 -3.3593292c0.487854 -0.9408722 1.0719299 -1.4113159 1.7521973 -1.4113159zm-22.036285 -10.018341c-2.109497 0 -3.9166565 1.4510651 -5.4214783 4.3532104c-1.4979248 2.8888855 -2.2469177 6.3674774 -2.2469177 10.435776l0 41.28589c0 4.0682983 0.7489929 7.5468903 2.2469177 10.435776c1.5048218 2.8888855 3.3119812 4.3333282 5.4214783 4.3333282l22.036285 0c2.1507263 0 3.9750671 -1.4444427 5.472992 -4.3333282c1.4979553 -2.8888855 2.2469177 -6.3674774 2.2469177 -10.435776l0 -41.28589c0 -4.0682983 -0.7489624 -7.5468903 -2.2469177 -10.435776c-1.4979248 -2.9021454 -3.3222656 -4.3532104 -5.472992 -4.3532104z" fill-rule="evenodd"/><path fill="#0000ff" d="m437.58582 166.53581c0.6734009 0 1.2506104 0.47044373 1.7315979 1.4113159c0.487854 0.9408722 0.731781 2.0606384 0.731781 3.3593292l0 41.28589c0 1.2986908 -0.243927 2.418457 -0.731781 3.3593292c-0.48098755 0.92762756 -1.058197 1.3914337 -1.7315979 1.3914337l-22.036285 0c-0.6802368 0 -1.2643127 -0.46380615 -1.7521667 -1.3914337c-0.48098755 -0.9408722 -0.7214966 -2.0606537 -0.7214966 -3.3593292l0 -41.28589c0 -1.2986755 0.24050903 -2.418457 0.7214966 -3.3593292c0.487854 -0.9408722 1.0719299 -1.4113159 1.7521667 -1.4113159zm-22.036285 -10.018341c-2.109497 0 -3.916626 1.4510651 -5.4214478 4.3532104c-1.4979553 2.8888855 -2.2469177 6.3674774 -2.2469177 10.435776l0 41.28589c0 4.0682983 0.7489624 7.5468903 2.2469177 10.435776c1.5048218 2.8888855 3.3119507 4.3333282 5.4214478 4.3333282l22.036285 0c2.1507263 0 3.9750671 -1.4444427 5.4730225 -4.3333282c1.4979553 -2.8888855 2.2469177 -6.3674774 2.2469177 -10.435776l0 -41.28589c0 -4.0682983 -0.7489624 -7.5468903 -2.2469177 -10.435776c-1.4979553 -2.9021454 -3.3222961 -4.3532104 -5.4730225 -4.3532104z" fill-rule="evenodd"/><path fill="#0000ff" d="m479.69647 166.53581c0.67337036 0 1.2540283 0.47044373 1.7418518 1.4113159c0.48788452 0.9408722 0.7318115 2.0606384 0.7318115 3.3593292l0 41.28589c0 1.2986908 -0.243927 2.418457 -0.7318115 3.3593292c-0.487854 0.92762756 -1.0684814 1.3914337 -1.7418518 1.3914337l-22.036285 0c-0.6734009 0 -1.2540283 -0.46380615 -1.7418823 -1.3914337c-0.48788452 -0.9408722 -0.7318115 -2.0606537 -0.7318115 -3.3593292l0 -41.28589c0 -1.2986755 0.243927 -2.418457 0.7318115 -3.3593292c0.487854 -0.9408722 1.0684814 -1.4113159 1.7418823 -1.4113159zm2.4736633 -33.215576l0 23.197235l-24.509949 0c-2.1507263 0 -3.9785156 1.4510651 -5.483307 4.3532104c-1.4979553 2.8888855 -2.2469177 6.3674774 -2.2469177 10.435776l0 41.28589c0 4.0682983 0.7489624 7.5468903 2.2469177 10.435776c1.5047913 2.8888855 3.3325806 4.3333282 5.483307 4.3333282l29.694336 0l0 -94.041214z" fill-rule="evenodd"/><path fill="#0000ff" d="m501.41373 156.51747c-2.109497 0 -3.913208 1.4510651 -5.4111633 4.3532104c-1.4979553 2.8888855 -2.2469177 6.3674774 -2.2469177 10.435776l0 10.873077c0 4.0682983 0.7489624 7.5468903 2.2469177 10.435776c1.4979553 2.8888855 3.3016663 4.3333282 5.4111633 4.3333282l22.036285 0c0.6802368 0 1.2608643 0.47042847 1.7418823 1.4113007c0.487854 0.92762756 0.7318115 2.047409 0.7318115 3.3593292l0 10.873077c0 1.2986908 -0.24395752 2.418457 -0.7318115 3.3593292c-0.48101807 0.92762756 -1.0616455 1.3914337 -1.7418823 1.3914337l-22.036285 0c-0.6734009 0 -1.2540283 -0.46380615 -1.7418823 -1.3914337c-0.48098755 -0.9408722 -0.7214966 -2.0606537 -0.7214966 -3.3593292l0 -0.9938812l-5.194702 0l0 0.9938812c0 4.0682983 0.7489624 7.5468903 2.2469177 10.435776c1.4979553 2.8888855 3.3016663 4.3333282 5.4111633 4.3333282l22.036285 0c2.1575928 0 3.9853516 -1.4444427 5.4832764 -4.3333282c1.4979858 -2.8888855 2.2469482 -6.3674774 2.2469482 -10.435776l0 -10.873077c0 -4.068283 -0.7489624 -7.546875 -2.2469482 -10.435776c-1.4979248 -2.9021301 -3.3256836 -4.353195 -5.4832764 -4.353195l-22.036285 0c-0.6734009 0 -1.2540283 -0.4638214 -1.7418823 -1.391449c-0.48098755 -0.9408722 -0.7214966 -2.0606384 -0.7214966 -3.359314l0 -10.873077c0 -1.2986755 0.24050903 -2.418457 0.7214966 -3.3593292c0.487854 -0.9408722 1.068512 -1.4113159 1.7418823 -1.4113159l22.036285 0c0.6802368 0 1.2608643 0.47044373 1.7418823 1.4113159c0.487854 0.9408722 0.7318115 2.0606384 0.7318115 3.3593292l0 0.973999l5.256531 0l0 -0.973999c0 -4.0682983 -0.7489624 -7.5468903 -2.2469482 -10.435776c-1.4979248 -2.9021454 -3.3256836 -4.3532104 -5.4832764 -4.3532104z" fill-rule="evenodd"/><path stroke="#000000" stroke-width="1.0" stroke-linejoin="round" stroke-linecap="butt" d="m7.6052246 139.42268c-2.1163702 0 -3.9132242 1.4245605 -5.390542 4.273697c-1.4773383 2.8491364 -2.2159972 6.3144684 -2.2159972 10.396011l0 19.659012c0 3.9887848 0.738659 7.4276123 2.2159972 10.316498c1.4773381 2.8888855 3.274192 4.3333435 5.390542 4.3333435l30.395237 0c0.67339325 0 1.2505836 0.45056152 1.7315674 1.3516693c0.48787308 0.8878784 0.73179626 1.9877777 0.73179626 3.2996979l0 19.659012c0 1.2986755 -0.24392319 2.418457 -0.73179626 3.359314c-0.48098373 0.92762756 -1.0581741 1.391449 -1.7315674 1.391449l-30.395237 0c-0.6802597 0 -1.2643142 -0.4638214 -1.7521839 -1.391449c-0.48098516 -0.9408722 -0.7214875 -2.0606537 -0.7214875 -3.359314l0 -3.4189606l-5.1328683 0l0 3.4189606c0 4.068283 0.738659 7.526993 2.2159972 10.376129c1.4773381 2.8491364 3.274192 4.273697 5.390542 4.273697l30.395237 0c2.1094856 0 3.902897 -1.4245605 5.380234 -4.273697c1.4773407 -2.8491364 2.2159996 -6.307846 2.2159996 -10.376129l0 -19.659012c0 -4.0020294 -0.7386589 -7.4474945 -2.2159996 -10.33638c-1.4773369 -2.8888855 -3.2707481 -4.3333282 -5.380234 -4.3333282l-30.395237 0c-0.6802597 0 -1.2643142 -0.4439392 -1.7521839 -1.3318024c-0.48098516 -0.90112305 -0.7214875 -2.0010223 -0.7214875 -3.2996979l0 -19.659012c0 -1.3119202 0.24050236 -2.4317017 0.7214875 -3.359314c0.48786974 -0.94088745 1.0719242 -1.4113159 1.7521839 -1.4113159l30.395237 0c0.67339325 0 1.2505836 0.47042847 1.7315674 1.4113159c0.48787308 0.9276123 0.73179626 2.0473938 0.73179626 3.359314l0 3.4189606l5.1328697 0l0 -3.4189606c0 -4.081543 -0.7386589 -7.5468903 -2.2159996 -10.396011c-1.4773369 -2.8491364 -3.2707481 -4.273697 -5.380234 -4.273697z" fill-rule="evenodd"/><path stroke="#000000" stroke-width="1.0" stroke-linejoin="round" stroke-linecap="butt" d="m82.004654 166.53581c0.6802597 0 1.2608948 0.47044373 1.7418747 1.4113159c0.48786926 0.9408722 0.73179626 2.0606384 0.73179626 3.3593292l0 41.28589c0 1.2986908 -0.243927 2.418457 -0.73179626 3.3593292c-0.48097992 0.92762756 -1.061615 1.3914337 -1.7418747 1.3914337l-22.03629 0c-0.67339325 0 -1.2643318 -0.46380615 -1.7727966 -1.3914337c-0.50159836 -0.9408722 -0.7524071 -2.0606537 -0.7524071 -3.3593292l0 -41.28589c0 -1.2986755 0.25080872 -2.418457 0.7524071 -3.3593292c0.5084839 -0.9408722 1.0994225 -1.4113159 1.7727966 -1.4113159zm-29.756203 -10.018341l0 98.93112l5.19471 0l0 -28.087143l24.561493 0c2.1163712 0 3.9235306 -1.4444427 5.421463 -4.3333282c1.4979553 -2.8888855 2.2469177 -6.3674774 2.2469177 -10.435776l0 -41.28589c0 -4.0682983 -0.7489624 -7.5468903 -2.2469177 -10.435776c-1.4979553 -2.9021454 -3.3051147 -4.3532104 -5.421463 -4.3532104z" fill-rule="evenodd"/><path stroke="#000000" stroke-width="1.0" stroke-linejoin="round" stroke-linecap="butt" d="m123.80573 166.53581c0.6733856 0 1.2505798 0.47044373 1.731575 1.4113159c0.487854 0.9408722 0.73178864 2.0606384 0.73178864 3.3593292l0 41.28589c0 1.2986908 -0.24393463 2.418457 -0.73178864 3.3593292c-0.48099518 0.92762756 -1.0581894 1.3914337 -1.731575 1.3914337l-22.036285 0c-0.6802597 0 -1.264328 -0.46380615 -1.7521896 -1.3914337c-0.48098755 -0.9408722 -0.7214813 -2.0606537 -0.7214813 -3.3593292l0 -41.28589c0 -1.2986755 0.24049377 -2.418457 0.7214813 -3.3593292c0.48786163 -0.9408722 1.0719299 -1.4113159 1.7521896 -1.4113159zm-22.036285 -10.018341c-2.109497 0 -3.9166489 1.4510651 -5.421463 4.3532104c-1.4979553 2.8888855 -2.2469177 6.3674774 -2.2469177 10.435776l0 41.28589c0 4.0682983 0.7489624 7.5468903 2.2469177 10.435776c1.5048141 2.8888855 3.311966 4.3333282 5.421463 4.3333282l22.036285 0c2.1507263 0 3.9750595 -1.4444427 5.4729996 -4.3333282c1.4979401 -2.8888855 2.2469177 -6.3674774 2.2469177 -10.435776l0 -41.28589c0 -4.0682983 -0.74897766 -7.5468903 -2.2469177 -10.435776c-1.4979401 -2.9021454 -3.3222733 -4.3532104 -5.4729996 -4.3532104z" fill-rule="evenodd"/><path stroke="#000000" stroke-width="1.0" stroke-linejoin="round" stroke-linecap="butt" d="m145.01958 156.51747c-2.109497 0 -3.9166412 1.4510651 -5.421463 4.3532104c-1.4979401 2.8888855 -2.2469177 6.3674774 -2.2469177 10.435776l0 56.054993l5.1947174 0l0 -56.054993c0 -1.2986755 0.243927 -2.418457 0.73179626 -3.3593292c0.487854 -0.9408722 1.0684814 -1.4113159 1.7418671 -1.4113159l20.644852 0l0 -10.018341z" fill-rule="evenodd"/><path stroke="#000000" stroke-width="1.0" stroke-linejoin="round" stroke-linecap="butt" d="m169.84624 133.32024l0 79.27211c0 4.0682983 0.7386627 7.5468903 2.2160034 10.435776c1.4773254 2.8888855 3.2913513 4.3333282 5.4420776 4.3333282l13.429962 0l0 -10.018341l-13.429962 0c-0.6733856 0 -1.2540131 -0.46380615 -1.7418823 -1.3914337c-0.487854 -0.9408722 -0.73179626 -2.0606537 -0.73179626 -3.3593292l0 -46.056534l15.903641 0l0 -10.018341l-15.903641 0l0 -23.197235z" fill-rule="evenodd"/><path stroke="#000000" stroke-width="1.0" stroke-linejoin="round" stroke-linecap="butt" d="m196.05437 133.32024l0 10.018341l5.1947174 0l0 -10.018341zm0 23.197235l0 70.84398l5.1947174 0l0 -70.84398z" fill-rule="evenodd"/><path stroke="#000000" stroke-width="1.0" stroke-linejoin="round" stroke-linecap="butt" d="m208.41026 156.51747l0 70.84398l5.1947174 0l0 -56.054993c0 -1.2986755 0.25079346 -2.418457 0.7524109 -3.3593292c0.5084686 -0.9408722 1.099411 -1.4113159 1.7727966 -1.4113159l22.036285 0c0.6802521 0 1.2608795 0.47044373 1.7418671 1.4113159c0.48786926 0.9408722 0.73179626 2.0606384 0.73179626 3.3593292l0 56.054993l5.1947174 0l0 -56.054993c0 -4.0682983 -0.74897766 -7.5468903 -2.2469177 -10.435776c-1.4979401 -2.9021454 -3.3050995 -4.3532104 -5.421463 -4.3532104z" fill-rule="evenodd"/><path stroke="#000000" stroke-width="1.0" stroke-linejoin="round" stroke-linecap="butt" d="m281.35492 166.53581c0.68026733 0 1.2608948 0.47044373 1.7418823 1.4113159c0.487854 0.9408722 0.731781 2.0606384 0.731781 3.3593292l0 41.28589c0 1.2986908 -0.243927 2.418457 -0.731781 3.3593292c-0.48098755 0.92762756 -1.061615 1.3914337 -1.7418823 1.3914337l-22.036285 0c-0.6734009 0 -1.2539978 -0.46380615 -1.7418823 -1.3914337c-0.48098755 -0.9408722 -0.72146606 -2.0606537 -0.72146606 -3.3593292l0 -41.28589c0 -1.2986755 0.24047852 -2.418457 0.72146606 -3.3593292c0.48788452 -0.9408722 1.0684814 -1.4113159 1.7418823 -1.4113159zm-22.036285 -10.018341c-2.109497 0 -3.913208 1.4510651 -5.411148 4.3532104c-1.4979553 2.8888855 -2.2469177 6.3674774 -2.2469177 10.435776l0 41.28589c0 4.0682983 0.7489624 7.5468903 2.2469177 10.435776c1.4979401 2.8888855 3.301651 4.3333282 5.411148 4.3333282l24.509949 0l0 13.059631c0 1.3119202 -0.243927 2.4317017 -0.731781 3.359314c-0.48098755 0.94088745 -1.061615 1.4113159 -1.7418823 1.4113159l-22.922668 0l0 10.137619l22.922668 0c2.1575928 0 3.9750671 -1.4444427 5.4523926 -4.3333435c1.4773254 -2.8888855 2.2160034 -6.413864 2.2160034 -10.574905l0 -69.114624c0 -4.0682983 -0.738678 -7.5468903 -2.2160034 -10.435776c-1.4773254 -2.9021454 -3.2947998 -4.3532104 -5.4523926 -4.3532104z" fill-rule="evenodd"/><path stroke="#000000" stroke-width="1.0" stroke-linejoin="round" stroke-linecap="butt" d="m320.6813 139.42268c-2.109497 0 -3.902893 1.4245605 -5.380249 4.273697c-1.4773254 2.8491364 -2.215973 6.3144684 -2.215973 10.396011l0 58.619232c0 4.068283 0.73864746 7.526993 2.215973 10.376129c1.477356 2.8491364 3.270752 4.273697 5.380249 4.273697l30.395233 0c2.1163635 0 3.913208 -1.4245605 5.3905334 -4.273697c1.477356 -2.8491364 2.2160034 -6.307846 2.2160034 -10.376129l0 -31.764511l-16.408691 0l0 10.018341l11.275818 0l0 21.74617c0 1.2986755 -0.243927 2.418457 -0.731781 3.359314c-0.48098755 0.92762756 -1.061615 1.391449 -1.7418823 1.391449l-30.395233 0c-0.6734009 0 -1.2540283 -0.4638214 -1.7418823 -1.391449c-0.48098755 -0.9408722 -0.72146606 -2.0606537 -0.72146606 -3.359314l0 -58.619232c0 -1.3119202 0.24047852 -2.4317017 0.72146606 -3.359314c0.48788452 -0.94088745 1.068512 -1.4113159 1.7418823 -1.4113159l30.395233 0c0.68026733 0 1.2608948 0.47042847 1.7418823 1.4113159c0.487854 0.9276123 0.731781 2.0473938 0.731781 3.359314l0 3.5382233l5.1328735 0l0 -3.5382233c0 -4.081543 -0.73864746 -7.5468903 -2.2160034 -10.396011c-1.4773254 -2.8491364 -3.27417 -4.273697 -5.3905334 -4.273697z" fill-rule="evenodd"/><path stroke="#000000" stroke-width="1.0" stroke-linejoin="round" stroke-linecap="butt" d="m395.0308 166.53581c0.67337036 0 1.2505798 0.47044373 1.7315674 1.4113159c0.487854 0.9408722 0.731781 2.0606384 0.731781 3.3593292l0 41.28589c0 1.2986908 -0.243927 2.418457 -0.731781 3.3593292c-0.48098755 0.92762756 -1.058197 1.3914337 -1.7315674 1.3914337l-22.036285 0c-0.68026733 0 -1.2643433 -0.46380615 -1.7521973 -1.3914337c-0.48098755 -0.9408722 -0.72146606 -2.0606537 -0.72146606 -3.3593292l0 -41.28589c0 -1.2986755 0.24047852 -2.418457 0.72146606 -3.3593292c0.487854 -0.9408722 1.0719299 -1.4113159 1.7521973 -1.4113159zm-22.036285 -10.018341c-2.109497 0 -3.9166565 1.4510651 -5.4214783 4.3532104c-1.4979248 2.8888855 -2.2469177 6.3674774 -2.2469177 10.435776l0 41.28589c0 4.0682983 0.7489929 7.5468903 2.2469177 10.435776c1.5048218 2.8888855 3.3119812 4.3333282 5.4214783 4.3333282l22.036285 0c2.1507263 0 3.9750671 -1.4444427 5.472992 -4.3333282c1.4979553 -2.8888855 2.2469177 -6.3674774 2.2469177 -10.435776l0 -41.28589c0 -4.0682983 -0.7489624 -7.5468903 -2.2469177 -10.435776c-1.4979248 -2.9021454 -3.3222656 -4.3532104 -5.472992 -4.3532104z" fill-rule="evenodd"/><path stroke="#000000" stroke-width="1.0" stroke-linejoin="round" stroke-linecap="butt" d="m437.58582 166.53581c0.6734009 0 1.2506104 0.47044373 1.7315979 1.4113159c0.487854 0.9408722 0.731781 2.0606384 0.731781 3.3593292l0 41.28589c0 1.2986908 -0.243927 2.418457 -0.731781 3.3593292c-0.48098755 0.92762756 -1.058197 1.3914337 -1.7315979 1.3914337l-22.036285 0c-0.6802368 0 -1.2643127 -0.46380615 -1.7521667 -1.3914337c-0.48098755 -0.9408722 -0.7214966 -2.0606537 -0.7214966 -3.3593292l0 -41.28589c0 -1.2986755 0.24050903 -2.418457 0.7214966 -3.3593292c0.487854 -0.9408722 1.0719299 -1.4113159 1.7521667 -1.4113159zm-22.036285 -10.018341c-2.109497 0 -3.916626 1.4510651 -5.4214478 4.3532104c-1.4979553 2.8888855 -2.2469177 6.3674774 -2.2469177 10.435776l0 41.28589c0 4.0682983 0.7489624 7.5468903 2.2469177 10.435776c1.5048218 2.8888855 3.3119507 4.3333282 5.4214478 4.3333282l22.036285 0c2.1507263 0 3.9750671 -1.4444427 5.4730225 -4.3333282c1.4979553 -2.8888855 2.2469177 -6.3674774 2.2469177 -10.435776l0 -41.28589c0 -4.0682983 -0.7489624 -7.5468903 -2.2469177 -10.435776c-1.4979553 -2.9021454 -3.3222961 -4.3532104 -5.4730225 -4.3532104z" fill-rule="evenodd"/><path stroke="#000000" stroke-width="1.0" stroke-linejoin="round" stroke-linecap="butt" d="m479.69647 166.53581c0.67337036 0 1.2540283 0.47044373 1.7418518 1.4113159c0.48788452 0.9408722 0.7318115 2.0606384 0.7318115 3.3593292l0 41.28589c0 1.2986908 -0.243927 2.418457 -0.7318115 3.3593292c-0.487854 0.92762756 -1.0684814 1.3914337 -1.7418518 1.3914337l-22.036285 0c-0.6734009 0 -1.2540283 -0.46380615 -1.7418823 -1.3914337c-0.48788452 -0.9408722 -0.7318115 -2.0606537 -0.7318115 -3.3593292l0 -41.28589c0 -1.2986755 0.243927 -2.418457 0.7318115 -3.3593292c0.487854 -0.9408722 1.0684814 -1.4113159 1.7418823 -1.4113159zm2.4736633 -33.215576l0 23.197235l-24.509949 0c-2.1507263 0 -3.9785156 1.4510651 -5.483307 4.3532104c-1.4979553 2.8888855 -2.2469177 6.3674774 -2.2469177 10.435776l0 41.28589c0 4.0682983 0.7489624 7.5468903 2.2469177 10.435776c1.5047913 2.8888855 3.3325806 4.3333282 5.483307 4.3333282l29.694336 0l0 -94.041214z" fill-rule="evenodd"/><path stroke="#000000" stroke-width="1.0" stroke-linejoin="round" stroke-linecap="butt" d="m501.41373 156.51747c-2.109497 0 -3.913208 1.4510651 -5.4111633 4.3532104c-1.4979553 2.8888855 -2.2469177 6.3674774 -2.2469177 10.435776l0 10.873077c0 4.0682983 0.7489624 7.5468903 2.2469177 10.435776c1.4979553 2.8888855 3.3016663 4.3333282 5.4111633 4.3333282l22.036285 0c0.6802368 0 1.2608643 0.47042847 1.7418823 1.4113007c0.487854 0.92762756 0.7318115 2.047409 0.7318115 3.3593292l0 10.873077c0 1.2986908 -0.24395752 2.418457 -0.7318115 3.3593292c-0.48101807 0.92762756 -1.0616455 1.3914337 -1.7418823 1.3914337l-22.036285 0c-0.6734009 0 -1.2540283 -0.46380615 -1.7418823 -1.3914337c-0.48098755 -0.9408722 -0.7214966 -2.0606537 -0.7214966 -3.3593292l0 -0.9938812l-5.194702 0l0 0.9938812c0 4.0682983 0.7489624 7.5468903 2.2469177 10.435776c1.4979553 2.8888855 3.3016663 4.3333282 5.4111633 4.3333282l22.036285 0c2.1575928 0 3.9853516 -1.4444427 5.4832764 -4.3333282c1.4979858 -2.8888855 2.2469482 -6.3674774 2.2469482 -10.435776l0 -10.873077c0 -4.068283 -0.7489624 -7.546875 -2.2469482 -10.435776c-1.4979248 -2.9021301 -3.3256836 -4.353195 -5.4832764 -4.353195l-22.036285 0c-0.6734009 0 -1.2540283 -0.4638214 -1.7418823 -1.391449c-0.48098755 -0.9408722 -0.7214966 -2.0606384 -0.7214966 -3.359314l0 -10.873077c0 -1.2986755 0.24050903 -2.418457 0.7214966 -3.3593292c0.487854 -0.9408722 1.068512 -1.4113159 1.7418823 -1.4113159l22.036285 0c0.6802368 0 1.2608643 0.47044373 1.7418823 1.4113159c0.487854 0.9408722 0.7318115 2.0606384 0.7318115 3.3593292l0 0.973999l5.256531 0l0 -0.973999c0 -4.0682983 -0.7489624 -7.5468903 -2.2469482 -10.435776c-1.4979248 -2.9021454 -3.3256836 -4.3532104 -5.4832764 -4.3532104z" fill-rule="evenodd"/></g></svg>