<svg version="1.1" viewBox="0.0 0.0 179.73228346456693 135.51443569553805" fill="none" stroke="none" stroke-linecap="square" stroke-miterlimit="10" xmlns:xlink="http://www.w3.org/1999/xlink" xmlns="http://www.w3.org/2000/svg"><clipPath id="p.0"><path d="m0 0l179.73228 0l0 135.51443l-179.73228 0l0 -135.51443z" clip-rule="nonzero"/></clipPath><g clip-path="url(#p.0)"><path fill="#000000" fill-opacity="0.0" d="m0 0l179.73228 0l0 135.51443l-179.73228 0z" fill-rule="evenodd"/><path fill="#0000ff" d="m117.74369 21.469326l0 0c0 0 0 0 0 0l0 0l0 0zm-2.5946426 44.529118l0 0c0 0 0 0 0 0l0 0c0 0 0 0 0 0zm-47.174957 -65.99844c-0.26818848 0 -0.5326309 0.00790182 -0.79333496 0.023702027c-1.2383499 0.056288444 -2.3359756 0.08443267 -3.2928772 0.08443267c-4.221634 0 -8.705948 0.7880383 -13.452938 2.364115c-4.7282295 1.5573149 -9.447079 3.6868935 -14.156548 6.388739c-4.709467 2.7018452 -9.212545 5.87276 -13.509226 9.512747c-4.2779217 3.639988 -8.105537 7.5895615 -11.482844 11.848719c-3.3585415 4.259159 -6.079152 8.743469 -8.161825 13.452942c-2.0826726 4.709461 -3.124009 9.512745 -3.124009 14.40984c0 5.159775 1.2852552 9.531509 3.8557587 13.1152115c2.589269 3.5836945 5.910287 6.4637833 9.963056 8.640274c4.0527687 2.1764832 8.508934 3.8276138 13.3685055 4.9533844c4.878334 1.1070099 9.803574 2.0357742 14.775719 2.7862778c4.9909096 0.7317505 9.812954 1.294632 14.466133 1.688652c4.67194 0.39402008 8.743473 0.89123535 12.214588 1.4916458c3.489891 0.58164215 5.8915253 1.1445312 7.2049255 1.688652c0.6438751 0.26298523 1.1321487 0.39448547 1.4648209 0.39448547c0.104789734 0 0.1941452 -0.013038635 0.26805878 -0.039138794l0 0c-1.1088791 1.6046524 -3.140625 3.2968063 -6.0952377 5.0764923c-3.208435 1.9325638 -6.885948 3.7150345 -11.032532 5.3474045c-4.127819 1.6323624 -8.471413 3.1146164 -13.030777 4.446785c-4.5593643 1.332161 -8.780998 2.5705109 -12.664902 3.7150345c-3.865141 1.1445312 -7.4300747 2.3547287 -10.694805 3.6306076c-3.245964 1.257103 -5.103483 3.0583344 -5.5725555 5.403694c-0.80680466 3.020813 -0.40340614 5.272354 1.2102013 6.754608c1.6135998 1.482254 3.4523525 2.2233887 5.516268 2.2233887c3.7900867 -0.3752594 8.227491 -1.219574 13.31222 -2.5329742c5.103485 -1.332161 10.347694 -2.9457703 15.73262 -4.840805c5.4036903 -1.89505 10.66666 -4.0246277 15.788906 -6.3887405c5.141014 -2.3641129 9.662857 -4.775131 13.565521 -7.2330627c3.9214249 -2.4766922 7.082962 -5.300499 9.484604 -8.471413c2.4016418 -3.1709137 2.7018433 -6.069771 0.9006119 -8.696564c0 -3.358551 -1.425972 -6.1354446 -4.2779236 -8.330696c-2.851944 -2.1952438 -6.276161 -3.8463745 -10.272636 -4.953377c-3.9777222 -1.1070099 -8.386978 -1.857521 -13.227791 -2.2515411c-4.840805 -0.41278076 -9.662849 -0.8349457 -14.466129 -1.2664871c-4.80328 -0.45030975 -9.49398 -1.0038147 -14.072113 -1.6605148c-4.5593643 -0.6566925 -8.471411 -1.613594 -11.736139 -2.8707047c-3.2647305 -1.2571182 -5.7414227 -2.8144226 -7.4300766 -4.6719437c-1.688652 -1.857521 -2.53298 -4.296688 -2.53298 -7.317501c0 -2.2140121 0.6285515 -4.840805 1.885664 -7.8803825c1.2758694 -3.058342 3.0020447 -6.18235 5.1785374 -9.372025c2.1952496 -3.1896782 4.737608 -6.2855415 7.6270847 -9.287596c2.9082355 -3.020811 5.882143 -5.675747 8.921717 -7.964815c3.0395775 -2.2890644 5.9290504 -4.0809116 8.668423 -5.3755474c2.7393723 -1.2946339 4.746994 -1.9419518 6.0228653 -1.9419518l6.585747 4.7282314c4.521839 0 8.274403 -0.97566605 11.257694 -2.927c2.983284 -1.9700956 4.47493 -5.234826 4.47493 -9.79419c0 -2.2140112 -0.5628891 -3.9870973 -1.688652 -5.3192587c-1.1070099 -1.3509227 -2.3641205 -2.1671052 -3.7713318 -2.4485474c-1.1109543 -0.22219235 -2.1692886 -0.33328852 -3.1749954 -0.33328852zm102.29895 6.5250177c-0.45030212 0 -0.9850464 0.02814436 -1.6042175 0.0844326c-0.61917114 0.05628872 -1.0788574 0.0844326 -1.3790588 0.0844326l-49.546074 14.775443l0 0c0.8450928 -0.3684101 1.1962814 -0.9593468 1.0535736 -1.7728119c-0.1876297 -1.069479 -0.5722656 -2.1858654 -1.1539154 -3.3491611c-0.5816498 -1.1632967 -1.5010223 -2.2703037 -2.758133 -3.3210192c-1.2571106 -1.0694809 -2.3359756 -1.6042213 -3.2365875 -1.6042213c-0.77718353 -0.77718544 -1.7677155 -1.1657763 -2.9715881 -1.1657763c-0.6852875 0 -1.4396973 0.12591457 -2.263237 0.377738c-2.2703018 0.6942234 -4.1747284 1.8106098 -5.7132797 3.349163c-1.5197906 1.5197878 -2.8238068 3.3304014 -3.9120483 5.431836c-1.0694809 2.1014328 -1.7543182 4.3342094 -2.0545273 6.698324c-0.28144073 2.3641148 0.03752899 4.7563744 0.95690155 7.176779c0.93814087 2.401638 2.15773 4.0527687 3.6587524 4.9533806c-0.3752594 7.054825 -0.61917114 13.481087 -0.7317505 19.278797c-0.112579346 5.778942 -0.14072418 10.638512 -0.08443451 14.578705c0.056289673 3.9214249 0.26268005 7.0360565 0.6191788 9.343887c0.37525177 2.3078232 0.80680084 4.259163 1.294632 5.8539963c0.5065918 1.5760727 1.2664871 2.6830902 2.2796783 3.3210144c1.0131912 0.6191788 2.6830826 1.1632996 5.009674 1.63237c13.865723 -15.160362 23.55671 -23.584862 29.07299 -25.273514c1.2675629 -0.38671875 2.3919525 -0.5800705 3.373169 -0.5800705c3.3034363 0 4.984085 2.191597 5.0419464 6.574791c0 3.6962738 -0.61917114 7.1298676 -1.8575134 10.300781c-1.2195892 3.1709137 -2.7299957 6.1917343 -4.5312195 9.062447c-1.801239 2.8707047 -3.8370056 5.6382294 -6.1073 8.302544c-2.2702942 2.6455536 -4.4280243 5.253586 -6.473175 7.8240967c-2.0451431 2.5705109 -3.8182297 5.2160645 -5.3192596 7.9366684c-1.482254 2.720604 -2.2233887 5.5725555 -2.2233887 8.555847c0 1.1820526 0.16886139 2.52359 0.5065918 4.0246277c0.35649872 1.5010223 2.4391708 2.936386 6.248024 4.306061c5.234825 -4.6344147 9.8504715 -9.212532 13.846962 -13.734383c3.9964752 -4.5218353 7.598938 -9.36264 10.807373 -14.522423c3.2272034 -5.159775 5.8258514 -10.600998 7.7959595 -16.323647c1.9700928 -5.722664 2.9551392 -11.651718 2.9551392 -17.787148c0 -2.15773 -0.26268005 -4.4561768 -0.78804016 -6.89534c-0.5065918 -2.457924 -1.3509216 -4.7282295 -2.5329742 -6.8109016c-1.1820679 -2.1014366 -2.8613434 -3.8932877 -5.0378265 -5.3755455c-2.15773 -1.5010223 -4.7938995 -2.2515373 -7.9085236 -2.2515373c-4.3342133 0 -8.180588 0.7317505 -11.539139 2.1952477c-3.3585358 1.4447365 -6.4074936 3.2647324 -9.146866 5.45998c-2.7393723 2.1952515 -5.300499 4.6625633 -7.6833725 7.4019356c-0.39702606 0.45689392 -0.7593918 0.9087601 -1.0870895 1.3555984l0 0c-0.025787354 -1.0092392 -0.03868103 -1.9583282 -0.03868103 -2.8472443l0 -3.0395775c0 -6.7358513 0.19701385 -11.895622 0.5910263 -15.479324c0.41278076 -3.5836945 1.36969 -6.323063 2.8707123 -8.218113c1.5197906 -1.9138069 3.9495773 -3.5555534 7.2893524 -4.9252396c3.3585434 -1.369688 8.349464 -2.9457645 14.972725 -4.7282295c5.347412 -1.557312 10.507187 -2.8425636 15.479324 -3.8557587c2.4408722 -0.49738503 5.0784454 -0.7460766 7.9127045 -0.7460766c2.9392242 0 6.0899963 0.26745605 9.452286 0.80236435c1.8199921 -2.3453522 3.0114288 -4.1184387 3.5743103 -5.3192577c0.5628967 -1.2195854 0.84432983 -2.6549397 0.84432983 -4.3060665c0 -2.7206078 -0.9099884 -4.5312204 -2.7299805 -5.4318357c-1.8200073 -0.91937685 -3.518036 -1.379067 -5.094116 -1.379067z" fill-rule="evenodd"/><path stroke="#000000" stroke-width="1.0" stroke-linejoin="round" stroke-linecap="butt" d="m117.74369 21.469326l0 0c0 0 0 0 0 0l0 0l0 0zm-2.5946426 44.529118l0 0c0 0 0 0 0 0l0 0c0 0 0 0 0 0zm-47.174957 -65.99844c-0.26818848 0 -0.5326309 0.00790182 -0.79333496 0.023702027c-1.2383499 0.056288444 -2.3359756 0.08443267 -3.2928772 0.08443267c-4.221634 0 -8.705948 0.7880383 -13.452938 2.364115c-4.7282295 1.5573149 -9.447079 3.6868935 -14.156548 6.388739c-4.709467 2.7018452 -9.212545 5.87276 -13.509226 9.512747c-4.2779217 3.639988 -8.105537 7.5895615 -11.482844 11.848719c-3.3585415 4.259159 -6.079152 8.743469 -8.161825 13.452942c-2.0826726 4.709461 -3.124009 9.512745 -3.124009 14.40984c0 5.159775 1.2852552 9.531509 3.8557587 13.1152115c2.589269 3.5836945 5.910287 6.4637833 9.963056 8.640274c4.0527687 2.1764832 8.508934 3.8276138 13.3685055 4.9533844c4.878334 1.1070099 9.803574 2.0357742 14.775719 2.7862778c4.9909096 0.7317505 9.812954 1.294632 14.466133 1.688652c4.67194 0.39402008 8.743473 0.89123535 12.214588 1.4916458c3.489891 0.58164215 5.8915253 1.1445312 7.2049255 1.688652c0.6438751 0.26298523 1.1321487 0.39448547 1.4648209 0.39448547c0.104789734 0 0.1941452 -0.013038635 0.26805878 -0.039138794l0 0c-1.1088791 1.6046524 -3.140625 3.2968063 -6.0952377 5.0764923c-3.208435 1.9325638 -6.885948 3.7150345 -11.032532 5.3474045c-4.127819 1.6323624 -8.471413 3.1146164 -13.030777 4.446785c-4.5593643 1.332161 -8.780998 2.5705109 -12.664902 3.7150345c-3.865141 1.1445312 -7.4300747 2.3547287 -10.694805 3.6306076c-3.245964 1.257103 -5.103483 3.0583344 -5.5725555 5.403694c-0.80680466 3.020813 -0.40340614 5.272354 1.2102013 6.754608c1.6135998 1.482254 3.4523525 2.2233887 5.516268 2.2233887c3.7900867 -0.3752594 8.227491 -1.219574 13.31222 -2.5329742c5.103485 -1.332161 10.347694 -2.9457703 15.73262 -4.840805c5.4036903 -1.89505 10.66666 -4.0246277 15.788906 -6.3887405c5.141014 -2.3641129 9.662857 -4.775131 13.565521 -7.2330627c3.9214249 -2.4766922 7.082962 -5.300499 9.484604 -8.471413c2.4016418 -3.1709137 2.7018433 -6.069771 0.9006119 -8.696564c0 -3.358551 -1.425972 -6.1354446 -4.2779236 -8.330696c-2.851944 -2.1952438 -6.276161 -3.8463745 -10.272636 -4.953377c-3.9777222 -1.1070099 -8.386978 -1.857521 -13.227791 -2.2515411c-4.840805 -0.41278076 -9.662849 -0.8349457 -14.466129 -1.2664871c-4.80328 -0.45030975 -9.49398 -1.0038147 -14.072113 -1.6605148c-4.5593643 -0.6566925 -8.471411 -1.613594 -11.736139 -2.8707047c-3.2647305 -1.2571182 -5.7414227 -2.8144226 -7.4300766 -4.6719437c-1.688652 -1.857521 -2.53298 -4.296688 -2.53298 -7.317501c0 -2.2140121 0.6285515 -4.840805 1.885664 -7.8803825c1.2758694 -3.058342 3.0020447 -6.18235 5.1785374 -9.372025c2.1952496 -3.1896782 4.737608 -6.2855415 7.6270847 -9.287596c2.9082355 -3.020811 5.882143 -5.675747 8.921717 -7.964815c3.0395775 -2.2890644 5.9290504 -4.0809116 8.668423 -5.3755474c2.7393723 -1.2946339 4.746994 -1.9419518 6.0228653 -1.9419518l6.585747 4.7282314c4.521839 0 8.274403 -0.97566605 11.257694 -2.927c2.983284 -1.9700956 4.47493 -5.234826 4.47493 -9.79419c0 -2.2140112 -0.5628891 -3.9870973 -1.688652 -5.3192587c-1.1070099 -1.3509227 -2.3641205 -2.1671052 -3.7713318 -2.4485474c-1.1109543 -0.22219235 -2.1692886 -0.33328852 -3.1749954 -0.33328852zm102.29895 6.5250177c-0.45030212 0 -0.9850464 0.02814436 -1.6042175 0.0844326c-0.61917114 0.05628872 -1.0788574 0.0844326 -1.3790588 0.0844326l-49.546074 14.775443l0 0c0.8450928 -0.3684101 1.1962814 -0.9593468 1.0535736 -1.7728119c-0.1876297 -1.069479 -0.5722656 -2.1858654 -1.1539154 -3.3491611c-0.5816498 -1.1632967 -1.5010223 -2.2703037 -2.758133 -3.3210192c-1.2571106 -1.0694809 -2.3359756 -1.6042213 -3.2365875 -1.6042213c-0.77718353 -0.77718544 -1.7677155 -1.1657763 -2.9715881 -1.1657763c-0.6852875 0 -1.4396973 0.12591457 -2.263237 0.377738c-2.2703018 0.6942234 -4.1747284 1.8106098 -5.7132797 3.349163c-1.5197906 1.5197878 -2.8238068 3.3304014 -3.9120483 5.431836c-1.0694809 2.1014328 -1.7543182 4.3342094 -2.0545273 6.698324c-0.28144073 2.3641148 0.03752899 4.7563744 0.95690155 7.176779c0.93814087 2.401638 2.15773 4.0527687 3.6587524 4.9533806c-0.3752594 7.054825 -0.61917114 13.481087 -0.7317505 19.278797c-0.112579346 5.778942 -0.14072418 10.638512 -0.08443451 14.578705c0.056289673 3.9214249 0.26268005 7.0360565 0.6191788 9.343887c0.37525177 2.3078232 0.80680084 4.259163 1.294632 5.8539963c0.5065918 1.5760727 1.2664871 2.6830902 2.2796783 3.3210144c1.0131912 0.6191788 2.6830826 1.1632996 5.009674 1.63237c13.865723 -15.160362 23.55671 -23.584862 29.07299 -25.273514c1.2675629 -0.38671875 2.3919525 -0.5800705 3.373169 -0.5800705c3.3034363 0 4.984085 2.191597 5.0419464 6.574791c0 3.6962738 -0.61917114 7.1298676 -1.8575134 10.300781c-1.2195892 3.1709137 -2.7299957 6.1917343 -4.5312195 9.062447c-1.801239 2.8707047 -3.8370056 5.6382294 -6.1073 8.302544c-2.2702942 2.6455536 -4.4280243 5.253586 -6.473175 7.8240967c-2.0451431 2.5705109 -3.8182297 5.2160645 -5.3192596 7.9366684c-1.482254 2.720604 -2.2233887 5.5725555 -2.2233887 8.555847c0 1.1820526 0.16886139 2.52359 0.5065918 4.0246277c0.35649872 1.5010223 2.4391708 2.936386 6.248024 4.306061c5.234825 -4.6344147 9.8504715 -9.212532 13.846962 -13.734383c3.9964752 -4.5218353 7.598938 -9.36264 10.807373 -14.522423c3.2272034 -5.159775 5.8258514 -10.600998 7.7959595 -16.323647c1.9700928 -5.722664 2.9551392 -11.651718 2.9551392 -17.787148c0 -2.15773 -0.26268005 -4.4561768 -0.78804016 -6.89534c-0.5065918 -2.457924 -1.3509216 -4.7282295 -2.5329742 -6.8109016c-1.1820679 -2.1014366 -2.8613434 -3.8932877 -5.0378265 -5.3755455c-2.15773 -1.5010223 -4.7938995 -2.2515373 -7.9085236 -2.2515373c-4.3342133 0 -8.180588 0.7317505 -11.539139 2.1952477c-3.3585358 1.4447365 -6.4074936 3.2647324 -9.146866 5.45998c-2.7393723 2.1952515 -5.300499 4.6625633 -7.6833725 7.4019356c-0.39702606 0.45689392 -0.7593918 0.9087601 -1.0870895 1.3555984l0 0c-0.025787354 -1.0092392 -0.03868103 -1.9583282 -0.03868103 -2.8472443l0 -3.0395775c0 -6.7358513 0.19701385 -11.895622 0.5910263 -15.479324c0.41278076 -3.5836945 1.36969 -6.323063 2.8707123 -8.218113c1.5197906 -1.9138069 3.9495773 -3.5555534 7.2893524 -4.9252396c3.3585434 -1.369688 8.349464 -2.9457645 14.972725 -4.7282295c5.347412 -1.557312 10.507187 -2.8425636 15.479324 -3.8557587c2.4408722 -0.49738503 5.0784454 -0.7460766 7.9127045 -0.7460766c2.9392242 0 6.0899963 0.26745605 9.452286 0.80236435c1.8199921 -2.3453522 3.0114288 -4.1184387 3.5743103 -5.3192577c0.5628967 -1.2195854 0.84432983 -2.6549397 0.84432983 -4.3060665c0 -2.7206078 -0.9099884 -4.5312204 -2.7299805 -5.4318357c-1.8200073 -0.91937685 -3.518036 -1.379067 -5.094116 -1.379067z" fill-rule="evenodd"/></g></svg>